<svg width="20" height="24" viewBox="0 0 20 24" fill="none" xmlns="http://www.w3.org/2000/svg">
<g id="Group 7">
<path id="Vector" fill-rule="evenodd" clip-rule="evenodd" d="M2.23114e-07 23.2495V2.99993C2.23114e-07 2.2043 0.35119 1.44126 0.976311 0.87866C1.60143 0.316063 2.44928 0 3.33333 0L16.6667 0C17.5507 0 18.3986 0.316063 19.0237 0.87866C19.6488 1.44126 20 2.2043 20 2.99993V23.2495C20.0001 23.3797 19.9625 23.5077 19.891 23.6209C19.8194 23.7341 19.7163 23.8286 19.5918 23.895C19.4674 23.9615 19.3258 23.9976 19.1812 23.9999C19.0365 24.0021 18.8936 23.9705 18.7667 23.908L10 19.6031L1.23333 23.908C1.10638 23.9705 0.963531 24.0021 0.818842 23.9999C0.674152 23.9976 0.532612 23.9615 0.408153 23.895C0.283694 23.8286 0.180608 23.7341 0.109041 23.6209C0.0374742 23.5077 -0.000105656 23.3797 2.23114e-07 23.2495ZM6.66667 8.99979C6.44565 8.99979 6.23369 9.07881 6.07741 9.21946C5.92113 9.36011 5.83333 9.55087 5.83333 9.74978C5.83333 9.94868 5.92113 10.1394 6.07741 10.2801C6.23369 10.4207 6.44565 10.4998 6.66667 10.4998H13.3333C13.5543 10.4998 13.7663 10.4207 13.9226 10.2801C14.0789 10.1394 14.1667 9.94868 14.1667 9.74978C14.1667 9.55087 14.0789 9.36011 13.9226 9.21946C13.7663 9.07881 13.5543 8.99979 13.3333 8.99979H6.66667Z" fill="url(#paint0_linear_44_241)"/>
</g>
<defs>
<linearGradient id="paint0_linear_44_241" x1="14.3045" y1="5.96178" x2="0.107331" y2="13.6132" gradientUnits="userSpaceOnUse">
<stop stop-color="#0184F7"/>
<stop offset="1" stop-color="#01A3FD"/>
</linearGradient>
</defs>
</svg>
