<svg width="20" height="20" viewBox="0 0 20 20" fill="none" xmlns="http://www.w3.org/2000/svg">
<path fill-rule="evenodd" clip-rule="evenodd" d="M4.94998 3.76836V2.40553C4.95013 1.91751 5.11008 1.44573 5.40077 1.07595C5.69146 0.706167 6.0936 0.462919 6.53409 0.390413L7.83115 0.177253C9.269 -0.0590842 10.731 -0.0590842 12.1688 0.177253L13.4659 0.390413C13.9064 0.462919 14.3085 0.706167 14.5992 1.07595C14.8899 1.44573 15.0499 1.91751 15.05 2.40553V3.76836L16.8723 3.9291C17.5502 3.98911 18.1903 4.29645 18.69 4.80197C19.1898 5.30749 19.5204 5.982 19.629 6.71766C20.1237 10.0637 20.1237 13.4752 19.629 16.8212C19.5204 17.5569 19.1898 18.2314 18.69 18.7369C18.1903 19.2424 17.5502 19.5498 16.8723 19.6098L14.882 19.7845C11.6326 20.0718 8.36737 20.0718 5.11796 19.7845L3.12772 19.6098C2.44975 19.5498 1.80971 19.2424 1.30995 18.7369C0.81019 18.2314 0.479569 17.5569 0.37095 16.8212C-0.12365 13.4752 -0.12365 10.0637 0.37095 6.71766C0.479785 5.98221 0.8105 5.30797 1.31024 4.80268C1.80998 4.29739 2.4499 3.99022 3.12772 3.93027L4.94998 3.76836ZM8.06823 1.90467C9.34891 1.69422 10.6511 1.69422 11.9318 1.90467L13.2288 2.11783C13.2917 2.12814 13.3492 2.16285 13.3908 2.21565C13.4323 2.26844 13.4552 2.33582 13.4553 2.40553V3.64606C11.1536 3.50224 8.84637 3.50224 6.54472 3.64606V2.40437C6.54479 2.33465 6.56767 2.26728 6.60923 2.21448C6.65078 2.16169 6.70825 2.12698 6.77118 2.11666L8.06823 1.90467ZM5.2466 5.49461C8.41057 5.21505 11.5894 5.21505 14.7534 5.49461L16.7436 5.67166C17.0661 5.69993 17.3707 5.8459 17.6085 6.08622C17.8464 6.32653 18.0038 6.6473 18.0556 6.99721C18.1215 7.44566 18.1778 7.89412 18.2257 8.34606C15.6666 9.72636 12.8524 10.4442 9.99999 10.4442C7.14763 10.4442 4.33338 9.72636 1.77432 8.34606C1.8211 7.89528 1.87851 7.44566 1.94443 6.99721C1.99621 6.6473 2.15362 6.32653 2.39146 6.08622C2.62931 5.8459 2.93385 5.69993 3.25637 5.67166L5.2466 5.49461ZM1.63186 10.2051C4.25983 11.5141 7.11318 12.1914 9.99999 12.1914C12.8868 12.1914 15.7402 11.5141 18.3681 10.2051C18.4697 12.3235 18.3649 14.4476 18.0556 16.5417C18.004 16.8918 17.8467 17.2128 17.6088 17.4534C17.3709 17.6939 17.0663 17.8401 16.7436 17.8684L14.7534 18.0431C11.5894 18.3227 8.41057 18.3227 5.2466 18.0431L3.25637 17.8684C2.9337 17.8401 2.62904 17.6939 2.39117 17.4534C2.15331 17.2128 1.99599 16.8918 1.94443 16.5417C1.63505 14.445 1.52979 12.3204 1.63186 10.2051Z" fill="black"/>
</svg>
