<svg width="20" height="20" viewBox="0 0 20 20" fill="none" xmlns="http://www.w3.org/2000/svg">
<path d="M15.2381 12.381H3.80952L0 16.1905V0.952381C0 0.699794 0.10034 0.457552 0.278946 0.278946C0.457552 0.10034 0.699794 0 0.952381 0H15.2381C15.4907 0 15.7329 0.10034 15.9115 0.278946C16.0901 0.457552 16.1905 0.699794 16.1905 0.952381V11.4286C16.1905 11.6812 16.0901 11.9234 15.9115 12.102C15.7329 12.2806 15.4907 12.381 15.2381 12.381ZM20 6.66667V20L16.1905 16.1905H5.71429C5.4617 16.1905 5.21946 16.0901 5.04085 15.9115C4.86224 15.7329 4.7619 15.4907 4.7619 15.2381V14.2857H18.0952V5.71429H19.0476C19.3002 5.71429 19.5424 5.81463 19.7211 5.99323C19.8997 6.17184 20 6.41408 20 6.66667ZM5.89524 1.90476C5.06667 1.90476 4.4 2.09524 3.88571 2.46667C3.39048 2.85714 3.14286 3.4 3.15238 4.15238L3.1619 4.18095H5C5.00952 3.89524 5.09524 3.67619 5.26667 3.52381C5.44302 3.37757 5.66619 3.2998 5.89524 3.30476C6.19048 3.30476 6.43809 3.4 6.60952 3.57143C6.78095 3.75238 6.85714 4 6.85714 4.28571C6.85714 4.59048 6.79048 4.84762 6.6381 5.06667C6.50476 5.28571 6.30476 5.47619 6.05714 5.62857C5.57143 5.95238 5.2381 6.2381 5.05714 6.49524C4.86667 6.74286 4.7619 7.14286 4.7619 7.61905H6.66667C6.66667 7.32381 6.70476 7.08571 6.79048 6.91429C6.87619 6.74286 7.0381 6.57143 7.27619 6.41905C7.70476 6.19048 8.05714 5.91429 8.33333 5.53333C8.60952 5.15238 8.75238 4.7619 8.75238 4.28571C8.75238 3.5619 8.49524 2.98095 7.98095 2.55238C7.47619 2.12381 6.78095 1.90476 5.89524 1.90476ZM4.7619 8.57143V10.4762H6.66667V8.57143H4.7619ZM10.4762 10.4762H12.381V8.57143H10.4762V10.4762ZM10.4762 1.90476V7.61905H12.381V1.90476H10.4762Z" fill="black"/>
</svg>
