<svg width="22" height="22" viewBox="0 0 22 22" fill="none" xmlns="http://www.w3.org/2000/svg">
<path d="M15.4352 18.752L14.8337 13.628C14.7484 12.9022 14.4169 12.2346 13.9014 11.7506C13.386 11.2667 12.7221 10.9997 12.0346 11H9.96301C9.27586 11.0002 8.61243 11.2674 8.09736 11.7513C7.58229 12.2352 7.25103 12.9026 7.16582 13.628L6.56334 18.752C6.53027 19.0335 6.55388 19.3193 6.63259 19.5903C6.7113 19.8614 6.84331 20.1116 7.01986 20.3242C7.19641 20.5368 7.41345 20.707 7.65658 20.8235C7.89971 20.94 8.16335 21.0002 8.43001 21H13.5695C13.836 21.0001 14.0996 20.9398 14.3426 20.8232C14.5856 20.7066 14.8025 20.5364 14.979 20.3238C15.1554 20.1112 15.2874 19.8611 15.366 19.5901C15.4447 19.3191 15.4683 19.0334 15.4352 18.752V18.752Z" stroke="black" stroke-width="2" stroke-linecap="round" stroke-linejoin="round"/>
<path d="M11.0004 7C12.5577 7 13.8202 5.65685 13.8202 4C13.8202 2.34315 12.5577 1 11.0004 1C9.44311 1 8.18066 2.34315 8.18066 4C8.18066 5.65685 9.44311 7 11.0004 7Z" stroke="black" stroke-width="2"/>
<path d="M3.48042 10C4.51862 10 5.36025 9.10457 5.36025 8C5.36025 6.89543 4.51862 6 3.48042 6C2.44222 6 1.60059 6.89543 1.60059 8C1.60059 9.10457 2.44222 10 3.48042 10Z" stroke="black" stroke-width="2"/>
<path d="M18.5195 10C19.5577 10 20.3993 9.10457 20.3993 8C20.3993 6.89543 19.5577 6 18.5195 6C17.4813 6 16.6396 6.89543 16.6396 8C16.6396 9.10457 17.4813 10 18.5195 10Z" stroke="black" stroke-width="2"/>
<path d="M3.48067 13H3.19306C2.74806 12.9999 2.31748 13.1678 1.97791 13.4738C1.63834 13.7798 1.4118 14.204 1.3386 14.671L1.02561 16.671C0.980692 16.9575 0.994988 17.2511 1.0675 17.5311C1.14001 17.8112 1.269 18.0711 1.4455 18.2928C1.62199 18.5144 1.84175 18.6925 2.08949 18.8146C2.33724 18.9368 2.60702 19 2.88006 19H6.30042M18.5193 13H18.8069C19.2519 12.9999 19.6825 13.1678 20.0221 13.4738C20.3617 13.7798 20.5882 14.204 20.6614 14.671L20.9744 16.671C21.0193 16.9575 21.005 17.2511 20.9325 17.5311C20.86 17.8112 20.731 18.0711 20.5545 18.2928C20.378 18.5144 20.1582 18.6925 19.9105 18.8146C19.6628 18.9368 19.393 19 19.1199 19H15.6996" stroke="black" stroke-width="2" stroke-linecap="round" stroke-linejoin="round"/>
</svg>
