<svg width="25" height="25" viewBox="0 0 25 25" fill="none" xmlns="http://www.w3.org/2000/svg">
<path d="M22.3813 18.8954H20.3795C20.2429 18.8954 20.1147 18.9564 20.0293 19.064C19.83 19.3111 19.6164 19.5494 19.3915 19.7762C18.4715 20.7164 17.3817 21.4657 16.1824 21.9826C14.94 22.5183 13.6046 22.7932 12.2559 22.7907C10.892 22.7907 9.57077 22.5174 8.3293 21.9826C7.13005 21.4657 6.04029 20.7164 5.12027 19.7762C4.19861 18.8391 3.4637 17.7285 2.95624 16.5058C2.42947 15.2384 2.16466 13.8925 2.16466 12.5C2.16466 11.1076 2.43232 9.76166 2.95624 8.49422C3.46308 7.27038 4.19202 6.16864 5.12027 5.22387C6.04853 4.27911 7.12769 3.53492 8.3293 3.01748C9.57077 2.4826 10.892 2.20934 12.2559 2.20934C13.6198 2.20934 14.941 2.47969 16.1824 3.01748C17.3841 3.53492 18.4632 4.27911 19.3915 5.22387C19.6164 5.45352 19.8271 5.69189 20.0293 5.93608C20.1147 6.04364 20.2457 6.10468 20.3795 6.10468H22.3813C22.5606 6.10468 22.6717 5.9012 22.572 5.74713C20.3881 2.28202 16.5668 -0.0115839 12.2246 4.40077e-05C5.40216 0.0174858 -0.0677044 5.67155 0.000633418 12.6279C0.0689712 19.4738 5.5303 25 12.2559 25C16.5868 25 20.3909 22.7093 22.572 19.2529C22.6688 19.0988 22.5606 18.8954 22.3813 18.8954ZM24.9126 12.3169L20.8721 9.06108C20.7212 8.93898 20.502 9.04945 20.502 9.24421V11.4535H11.5611C11.4358 11.4535 11.3333 11.5582 11.3333 11.6861V13.314C11.3333 13.4419 11.4358 13.5465 11.5611 13.5465H20.502V15.7558C20.502 15.9506 20.7241 16.0611 20.8721 15.939L24.9126 12.6832C24.9398 12.6614 24.9618 12.6336 24.977 12.6019C24.9921 12.5702 25 12.5353 25 12.5C25 12.4647 24.9921 12.4299 24.977 12.3982C24.9618 12.3664 24.9398 12.3386 24.9126 12.3169Z" fill="black"/>
</svg>
