<svg width="20" height="20" viewBox="0 0 20 20" fill="none" xmlns="http://www.w3.org/2000/svg">
<path d="M8.33301 4.44446H13.333V5.55557H8.33301V4.44446Z" fill="black"/>
<path d="M8.33301 6.66666H13.333V7.77777H8.33301V6.66666Z" fill="black"/>
<path d="M8.33301 8.88889H13.333V10H8.33301V8.88889Z" fill="black"/>
<path d="M8.33301 11.1111H13.333V12.2222H8.33301V11.1111Z" fill="black"/>
<path d="M8.33301 13.3333H13.333V14.4445H8.33301V13.3333Z" fill="black"/>
<path d="M6.11133 4.44446H7.22244V5.55557H6.11133V4.44446Z" fill="black"/>
<path d="M6.11133 6.66666H7.22244V7.77777H6.11133V6.66666Z" fill="black"/>
<path d="M6.11133 8.88889H7.22244V10H6.11133V8.88889Z" fill="black"/>
<path d="M6.11133 11.1111H7.22244V12.2222H6.11133V11.1111Z" fill="black"/>
<path d="M6.11133 13.3333H7.22244V14.4445H6.11133V13.3333Z" fill="black"/>
<path d="M15.5552 1.11111H4.44412C4.14943 1.11111 3.86682 1.22818 3.65844 1.43655C3.45007 1.64493 3.33301 1.92754 3.33301 2.22223V17.7778C3.33301 18.0725 3.45007 18.3551 3.65844 18.5635C3.86682 18.7718 4.14943 18.8889 4.44412 18.8889H15.5552C15.8499 18.8889 16.1325 18.7718 16.3409 18.5635C16.5493 18.3551 16.6663 18.0725 16.6663 17.7778V2.22223C16.6663 1.92754 16.5493 1.64493 16.3409 1.43655C16.1325 1.22818 15.8499 1.11111 15.5552 1.11111ZM15.5552 17.7778H4.44412V2.22223H15.5552V17.7778Z" fill="black"/>
</svg>
