<svg width="20" height="20" viewBox="0 0 20 20" fill="none" xmlns="http://www.w3.org/2000/svg">
<path d="M19.8542 14.1325L17.655 10.5333V6.78571C17.655 3.04406 14.221 0 10.0001 0C5.77924 0 2.34529 3.04406 2.34529 6.78571V10.5333L0.145928 14.1325C0.0461893 14.2957 -0.00400971 14.4791 0.000250212 14.6647C0.00451013 14.8502 0.0630827 15.0316 0.170229 15.1911C0.277375 15.3506 0.429418 15.4827 0.611462 15.5744C0.793506 15.6661 0.999305 15.7143 1.20869 15.7143H5.58682C5.5746 15.833 5.56844 15.9522 5.56833 16.0714C5.56833 17.1133 6.03525 18.1126 6.86636 18.8493C7.69748 19.5861 8.82471 20 10.0001 20C11.1755 20 12.3027 19.5861 13.1338 18.8493C13.9649 18.1126 14.4318 17.1133 14.4318 16.0714C14.4318 15.9509 14.4253 15.832 14.4134 15.7143H18.7915C19.0009 15.7143 19.2066 15.666 19.3886 15.5743C19.5707 15.4826 19.7227 15.3505 19.8298 15.1911C19.9369 15.0316 19.9955 14.8502 19.9998 14.6647C20.004 14.4791 19.9538 14.2957 19.8541 14.1325H19.8542ZM12.8203 16.0714C12.8207 16.415 12.7411 16.7549 12.5866 17.07C12.4321 17.3851 12.206 17.6686 11.9224 17.9027C11.6388 18.1369 11.3039 18.3168 10.9384 18.4311C10.5729 18.5454 10.1847 18.5917 9.79817 18.567C9.4116 18.5424 9.0349 18.4475 8.69158 18.2881C8.34826 18.1287 8.04569 17.9082 7.80275 17.6405C7.55981 17.3728 7.38173 17.0636 7.2796 16.7322C7.17748 16.4008 7.15351 16.0543 7.20919 15.7143H12.791C12.8104 15.8326 12.8202 15.9519 12.8203 16.0714ZM1.88509 14.2857L3.95684 10.8953V6.78571C3.95684 5.36491 4.59354 4.0023 5.72688 2.99764C6.86022 1.99298 8.39736 1.42857 10.0001 1.42857C11.6029 1.42857 13.1401 1.99298 14.2734 2.99764C15.4067 4.0023 16.0434 5.36491 16.0434 6.78571V10.8953L18.1151 14.2857H1.88509Z" fill="black"/>
</svg>
