<svg width="20" height="25" viewBox="0 0 20 25" fill="none" xmlns="http://www.w3.org/2000/svg">
<path d="M0.769531 18.4608C0.769531 17.6537 1.36334 16.9717 2.15406 16.8826C8.08831 16.2154 11.9381 16.2756 17.8592 16.8975C18.1549 16.929 18.4352 17.0473 18.6657 17.238C18.8963 17.4286 19.0672 17.6833 19.1576 17.971C19.248 18.2587 19.2539 18.5669 19.1747 18.858C19.0955 19.149 18.9345 19.4103 18.7115 19.61C11.7235 25.7968 7.72987 25.7116 1.26181 19.6163C0.946444 19.3194 0.769531 18.8975 0.769531 18.4616V18.4608Z" fill="black"/>
<path fill-rule="evenodd" clip-rule="evenodd" d="M17.7797 17.6744C11.9054 17.0573 8.11104 16.9994 2.23756 17.6596C2.04422 17.6825 1.86598 17.777 1.73697 17.925C1.60797 18.0731 1.53725 18.2643 1.53837 18.462C1.53837 18.6854 1.6299 18.8971 1.78451 19.044C4.99047 22.0643 7.41955 23.4292 9.79402 23.4378C12.1769 23.4464 14.7368 22.0925 18.2058 19.0221C18.316 18.9225 18.3954 18.7925 18.4342 18.6479C18.473 18.5033 18.4696 18.3504 18.4245 18.2078C18.3794 18.0651 18.2944 17.9388 18.1799 17.8443C18.0654 17.7497 17.9264 17.691 17.7797 17.6752V17.6744ZM2.06911 16.1065C8.06566 15.4322 11.9716 15.4932 17.9389 16.1205C18.3837 16.1677 18.8054 16.3456 19.1522 16.6324C19.499 16.9192 19.756 17.3024 19.8916 17.7353C20.0273 18.1681 20.0358 18.6318 19.916 19.0695C19.7962 19.5071 19.5534 19.8998 19.2173 20.1995C15.6983 23.3151 12.7677 25.012 9.7894 25.0003C6.80266 24.9894 4.0013 23.2636 0.73919 20.1893C0.505629 19.9684 0.31944 19.7008 0.192256 19.4035C0.0650721 19.1062 -0.000375 18.7854 4.46071e-06 18.4612C-0.00111733 17.8787 0.209379 17.3163 0.591171 16.8816C0.972964 16.447 1.49921 16.1707 2.06911 16.1057V16.1065Z" fill="black"/>
<path d="M16.1526 6.25006C16.1526 7.90768 15.5043 9.49741 14.3503 10.6695C13.1963 11.8416 11.6312 12.5001 9.99917 12.5001C8.36717 12.5001 6.80201 11.8416 5.64801 10.6695C4.49401 9.49741 3.8457 7.90768 3.8457 6.25006C3.8457 4.59244 4.49401 3.00271 5.64801 1.8306C6.80201 0.658486 8.36717 0 9.99917 0C11.6312 0 13.1963 0.658486 14.3503 1.8306C15.5043 3.00271 16.1526 4.59244 16.1526 6.25006Z" fill="black"/>
<path fill-rule="evenodd" clip-rule="evenodd" d="M9.99917 10.9376C11.2232 10.9376 12.397 10.4437 13.2625 9.56466C14.128 8.68557 14.6143 7.49327 14.6143 6.25006C14.6143 5.00685 14.128 3.81455 13.2625 2.93547C12.397 2.05638 11.2232 1.56251 9.99917 1.56251C8.77517 1.56251 7.6013 2.05638 6.7358 2.93547C5.8703 3.81455 5.38407 5.00685 5.38407 6.25006C5.38407 7.49327 5.8703 8.68557 6.7358 9.56466C7.6013 10.4437 8.77517 10.9376 9.99917 10.9376ZM9.99917 12.5001C11.6312 12.5001 13.1963 11.8416 14.3503 10.6695C15.5043 9.49741 16.1526 7.90768 16.1526 6.25006C16.1526 4.59244 15.5043 3.00271 14.3503 1.8306C13.1963 0.658486 11.6312 0 9.99917 0C8.36717 0 6.80201 0.658486 5.64801 1.8306C4.49401 3.00271 3.8457 4.59244 3.8457 6.25006C3.8457 7.90768 4.49401 9.49741 5.64801 10.6695C6.80201 11.8416 8.36717 12.5001 9.99917 12.5001Z" fill="black"/>
</svg>
