<svg width="21" height="21" viewBox="0 0 21 21" fill="none" xmlns="http://www.w3.org/2000/svg">
<path d="M20.5747 12.6989L18.9646 11.4332C19.0408 11.0038 19.0801 10.5653 19.0801 10.1268C19.0801 9.68835 19.0408 9.24988 18.9646 8.82044L20.5747 7.55472C20.6961 7.45913 20.783 7.33181 20.8239 7.1897C20.8647 7.04758 20.8575 6.8974 20.8033 6.75913L20.7812 6.70037C20.3379 5.56129 19.6742 4.50534 18.822 3.58355L18.7778 3.53609C18.6744 3.42432 18.5366 3.34398 18.3826 3.30565C18.2286 3.26732 18.0655 3.2728 17.915 3.32137L15.9165 3.97456C15.1791 3.41855 14.3556 2.98008 13.4657 2.67269L13.0798 0.751517C13.0507 0.60696 12.9744 0.47397 12.8611 0.370216C12.7479 0.266462 12.6029 0.196856 12.4456 0.170645L12.3792 0.159344C11.0985 -0.0531147 9.75147 -0.0531147 8.47077 0.159344L8.4044 0.170645C8.24708 0.196856 8.10214 0.266462 7.98886 0.370216C7.87558 0.47397 7.79932 0.60696 7.7702 0.751517L7.38182 2.68173C6.49907 2.98918 5.67701 3.42743 4.94825 3.97908L2.93503 3.32137C2.78451 3.27241 2.62135 3.26674 2.46723 3.30509C2.31312 3.34345 2.17535 3.42401 2.07222 3.53609L2.02798 3.58355C1.17683 4.50599 0.513207 5.56176 0.0688331 6.70037L0.0467097 6.75913C-0.0639068 7.04166 0.0270446 7.35809 0.275317 7.55472L1.90507 8.834C1.82887 9.25892 1.79199 9.69287 1.79199 10.1246C1.79199 10.5585 1.82887 10.9925 1.90507 11.4151L0.275317 12.6944C0.153874 12.79 0.0669561 12.9173 0.0261203 13.0594C-0.0147156 13.2016 -0.00753422 13.3517 0.0467097 13.49L0.0688331 13.5488C0.513757 14.6879 1.17254 15.7389 2.02798 16.6656L2.07222 16.7131C2.1756 16.8248 2.31338 16.9052 2.4674 16.9435C2.62142 16.9818 2.78446 16.9763 2.93503 16.9278L4.94825 16.2701C5.68078 16.8238 6.49934 17.2623 7.38182 17.5674L7.7702 19.4976C7.79932 19.6422 7.87558 19.7752 7.98886 19.8789C8.10214 19.9827 8.24708 20.0523 8.4044 20.0785L8.47077 20.0898C9.76324 20.3034 11.0868 20.3034 12.3792 20.0898L12.4456 20.0785C12.6029 20.0523 12.7479 19.9827 12.8611 19.8789C12.9744 19.7752 13.0507 19.6422 13.0798 19.4976L13.4657 17.5765C14.3552 17.2699 15.1833 16.83 15.9165 16.2746L17.915 16.9278C18.0655 16.9767 18.2287 16.9824 18.3828 16.9441C18.5369 16.9057 18.6747 16.8251 18.7778 16.7131L18.822 16.6656C19.6775 15.7367 20.3362 14.6879 20.7812 13.5488L20.8033 13.49C20.9139 13.212 20.823 12.8956 20.5747 12.6989ZM17.2193 9.08714C17.2808 9.42843 17.3127 9.77876 17.3127 10.1291C17.3127 10.4794 17.2808 10.8298 17.2193 11.171L17.0571 12.0774L18.8933 13.5217C18.6149 14.1113 18.2636 14.6695 17.8461 15.1852L15.565 14.4416L14.7931 15.0247C14.2056 15.4677 13.5518 15.8158 12.8438 16.0599L11.9073 16.3831L11.4673 18.5755C10.773 18.6478 10.0721 18.6478 9.37783 18.5755L8.93782 16.3786L8.00864 16.0508C7.30807 15.8067 6.65666 15.4586 6.07408 15.0179L5.30223 14.4325L3.00632 15.1829C2.58843 14.6653 2.23938 14.107 1.95915 13.5194L3.81505 12.0616L3.65527 11.1575C3.59627 10.8207 3.56432 10.4726 3.56432 10.1291C3.56432 9.78328 3.59381 9.43747 3.65527 9.1007L3.81505 8.19662L1.95915 6.73879C2.23692 6.14888 2.58843 5.59287 3.00632 5.07528L5.30223 5.82567L6.07408 5.24028C6.65666 4.79954 7.30807 4.45147 8.00864 4.20737L8.94028 3.88416L9.38029 1.68724C10.071 1.61491 10.7765 1.61491 11.4697 1.68724L11.9097 3.87964L12.8463 4.20284C13.5518 4.44695 14.2081 4.79502 14.7956 5.23802L15.5674 5.82115L17.8486 5.07754C18.2665 5.59513 18.6155 6.1534 18.8958 6.74105L17.0595 8.18532L17.2193 9.08714ZM10.4275 5.92512C8.03814 5.92512 6.10112 7.70616 6.10112 9.90307C6.10112 12.1 8.03814 13.881 10.4275 13.881C12.8168 13.881 14.7538 12.1 14.7538 9.90307C14.7538 7.70616 12.8168 5.92512 10.4275 5.92512ZM12.3743 11.6932C12.119 11.9286 11.8155 12.1153 11.4814 12.2426C11.1473 12.3698 10.7891 12.435 10.4275 12.4345C9.69247 12.4345 9.00173 12.1701 8.48061 11.6932C8.22453 11.4584 8.02146 11.1793 7.88309 10.8721C7.74472 10.5649 7.67377 10.2356 7.67434 9.90307C7.67434 9.22727 7.96194 8.59216 8.48061 8.11299C9.00173 7.63383 9.69247 7.37165 10.4275 7.37165C11.1624 7.37165 11.8532 7.63383 12.3743 8.11299C12.6304 8.34778 12.8335 8.6268 12.9718 8.93401C13.1102 9.24122 13.1811 9.57056 13.1806 9.90307C13.1806 10.5789 12.893 11.214 12.3743 11.6932Z" fill="black"/>
</svg>
