<svg width="21" height="30" viewBox="0 0 21 30" fill="none" xmlns="http://www.w3.org/2000/svg">
<path d="M20.625 0V1.875H0V0H20.625ZM11.25 8.83301V16.9482C12.0605 17.0557 12.8076 17.2998 13.4912 17.6807C14.1748 18.0615 14.7705 18.5449 15.2783 19.1309C15.7861 19.7168 16.1768 20.376 16.4502 21.1084C16.7236 21.8408 16.8652 22.6172 16.875 23.4375C16.875 24.3457 16.7041 25.1953 16.3623 25.9863C16.0205 26.7773 15.5518 27.4756 14.9561 28.0811C14.3604 28.6865 13.667 29.1553 12.876 29.4873C12.085 29.8193 11.2305 29.9902 10.3125 30C9.4043 30 8.55469 29.8291 7.76367 29.4873C6.97266 29.1455 6.27441 28.6768 5.66895 28.0811C5.06348 27.4854 4.59473 26.792 4.2627 26.001C3.93066 25.21 3.75977 24.3555 3.75 23.4375C3.75 22.627 3.8916 21.8555 4.1748 21.123C4.45801 20.3906 4.84863 19.7314 5.34668 19.1455C5.84473 18.5596 6.43555 18.0762 7.11914 17.6953C7.80273 17.3145 8.55469 17.0654 9.375 16.9482V8.83301L4.40918 13.7842L3.09082 12.4658L10.3125 5.24414L17.5342 12.4658L16.2158 13.7842L11.25 8.83301ZM15 23.4375C15 22.793 14.8779 22.1875 14.6338 21.6211C14.3896 21.0547 14.0527 20.5615 13.623 20.1416C13.1934 19.7217 12.6953 19.3848 12.1289 19.1309C11.5625 18.877 10.957 18.75 10.3125 18.75C9.66797 18.75 9.0625 18.8721 8.49609 19.1162C7.92969 19.3604 7.43164 19.6973 7.00195 20.127C6.57227 20.5566 6.23535 21.0547 5.99121 21.6211C5.74707 22.1875 5.625 22.793 5.625 23.4375C5.625 24.082 5.74707 24.6875 5.99121 25.2539C6.23535 25.8203 6.56738 26.3184 6.9873 26.748C7.40723 27.1777 7.90527 27.5146 8.48145 27.7588C9.05762 28.0029 9.66797 28.125 10.3125 28.125C10.957 28.125 11.5625 28.0029 12.1289 27.7588C12.6953 27.5146 13.1885 27.1826 13.6084 26.7627C14.0283 26.3428 14.3652 25.8447 14.6191 25.2686C14.873 24.6924 15 24.082 15 23.4375Z" fill="black"/>
</svg>
