<svg width="31" height="33" viewBox="0 0 31 33" fill="none" xmlns="http://www.w3.org/2000/svg">
<path id="Vector" d="M25.7645 25.0455C26.5182 25.4224 27.1977 25.8849 27.803 26.4331C28.4083 26.9813 28.9222 27.5923 29.3447 28.2661C29.7673 28.9399 30.0985 29.6708 30.3383 30.4588C30.5782 31.2468 30.6981 32.0576 30.6981 32.8913H28.5054C28.5054 31.9891 28.334 31.1383 27.9914 30.3389C27.6488 29.5394 27.1806 28.8428 26.5867 28.2489C25.9929 27.6551 25.2905 27.1811 24.4797 26.8271C23.6688 26.4731 22.818 26.3017 21.9272 26.3132C21.0136 26.3132 20.1627 26.4845 19.3747 26.8271C18.5867 27.1697 17.8901 27.6379 17.2848 28.2318C16.6795 28.8257 16.2056 29.528 15.863 30.3389C15.5203 31.1497 15.349 32.0005 15.349 32.8913H13.1563C13.1563 32.0576 13.2705 31.2468 13.4989 30.4588C13.7273 29.6708 14.0585 28.9399 14.4925 28.2661C14.9265 27.5923 15.4461 26.9813 16.0514 26.4331C16.6567 25.8849 17.3362 25.4224 18.0899 25.0455C17.2334 24.4288 16.5653 23.6579 16.0857 22.7329C15.606 21.8078 15.3605 20.8085 15.349 19.735C15.349 18.8328 15.1777 17.982 14.8351 17.1825C14.4925 16.3831 14.0243 15.6865 13.4304 15.0926C12.8365 14.4988 12.1342 14.0248 11.3233 13.6708C10.5125 13.3167 9.66167 13.1454 8.77088 13.1569C7.85724 13.1569 7.00642 13.3282 6.21841 13.6708C5.43041 14.0134 4.73376 14.4816 4.12848 15.0755C3.5232 15.6693 3.04925 16.3717 2.70664 17.1825C2.36403 17.9934 2.19272 18.8442 2.19272 19.735H0C0 18.9013 0.114204 18.0905 0.342612 17.3025C0.571021 16.5145 0.902213 15.7835 1.33619 15.1097C1.77016 14.4359 2.28979 13.8249 2.89507 13.2768C3.50036 12.7286 4.17987 12.2661 4.93362 11.8892C4.07709 11.2725 3.40899 10.5016 2.92934 9.57655C2.44968 8.6515 2.20414 7.65221 2.19272 6.57869C2.19272 5.67648 2.36403 4.82566 2.70664 4.02623C3.04925 3.2268 3.51749 2.53016 4.11135 1.9363C4.70521 1.34243 5.40185 0.868487 6.20128 0.514454C7.00071 0.160421 7.85724 -0.0108851 8.77088 0.000535332C9.67309 0.000535332 10.5239 0.171842 11.3233 0.514454C12.1228 0.857066 12.8194 1.3253 13.4133 1.91916C14.0071 2.51303 14.4811 3.21538 14.8351 4.02623C15.1891 4.83708 15.3605 5.6879 15.349 6.57869C15.349 7.65221 15.1092 8.6515 14.6295 9.57655C14.1499 10.5016 13.4761 11.2725 12.6081 11.8892C13.4761 12.3232 14.2527 12.8828 14.9379 13.568C15.6231 14.2532 16.1827 15.0298 16.6167 15.8978C17.2334 15.0412 18.0043 14.3731 18.9293 13.8935C19.8544 13.4138 20.8537 13.1683 21.9272 13.1569C22.8294 13.1569 23.6802 13.3282 24.4797 13.6708C25.2791 14.0134 25.9757 14.4816 26.5696 15.0755C27.1635 15.6693 27.6374 16.3717 27.9914 17.1825C28.3455 17.9934 28.5168 18.8442 28.5054 19.735C28.5054 20.8085 28.2655 21.8078 27.7859 22.7329C27.3062 23.6579 26.6324 24.4288 25.7645 25.0455ZM8.77088 10.9641C9.37616 10.9641 9.94147 10.8499 10.4668 10.6215C10.9921 10.3931 11.4604 10.0791 11.8715 9.67934C12.2827 9.27962 12.5967 8.81709 12.8137 8.29176C13.0307 7.76642 13.1449 7.1954 13.1563 6.57869C13.1563 5.97341 13.0421 5.4081 12.8137 4.88276C12.5853 4.35742 12.2712 3.88919 11.8715 3.47805C11.4718 3.06692 11.0093 2.75286 10.4839 2.53587C9.9586 2.31888 9.38758 2.20468 8.77088 2.19325C8.1656 2.19325 7.60028 2.30746 7.07495 2.53587C6.54961 2.76428 6.08137 3.07834 5.67023 3.47805C5.2591 3.87777 4.94504 4.34029 4.72805 4.86563C4.51106 5.39097 4.39686 5.96199 4.38544 6.57869C4.38544 7.18398 4.49964 7.74929 4.72805 8.27462C4.95646 8.79996 5.27052 9.2682 5.67023 9.67934C6.06995 10.0905 6.53248 10.4045 7.05782 10.6215C7.58315 10.8385 8.15417 10.9527 8.77088 10.9641ZM21.9272 24.1204C22.5325 24.1204 23.0978 24.0062 23.6231 23.7778C24.1485 23.5494 24.6167 23.2354 25.0278 22.8357C25.439 22.4359 25.753 21.9734 25.97 21.4481C26.187 20.9227 26.3012 20.3517 26.3126 19.735C26.3126 19.1297 26.1984 18.5644 25.97 18.0391C25.7416 17.5137 25.4275 17.0455 25.0278 16.6344C24.6281 16.2232 24.1656 15.9092 23.6403 15.6922C23.1149 15.4752 22.5439 15.361 21.9272 15.3496C21.3219 15.3496 20.7566 15.4638 20.2313 15.6922C19.7059 15.9206 19.2377 16.2347 18.8265 16.6344C18.4154 17.0341 18.1014 17.4966 17.8844 18.0219C17.6674 18.5473 17.5532 19.1183 17.5418 19.735C17.5418 20.3403 17.656 20.9056 17.8844 21.4309C18.1128 21.9563 18.4268 22.4245 18.8265 22.8357C19.2263 23.2468 19.6888 23.5608 20.2141 23.7778C20.7395 23.9948 21.3105 24.109 21.9272 24.1204ZM24.1199 4.38597H17.5418V2.19325H26.3126V10.9641H24.1199V4.38597Z" fill="url(#paint0_linear_64_65)"/>
<defs>
<linearGradient id="paint0_linear_64_65" x1="21.956" y1="8.17045" x2="1.34475" y2="20.6114" gradientUnits="userSpaceOnUse">
<stop stop-color="#0184F7"/>
<stop offset="1" stop-color="#01A3FD"/>
</linearGradient>
</defs>
</svg>
